<svg id="visual" viewBox="0 0 960 540" width="960" height="540" xmlns="http://www.w3.org/2000/svg" xmlns:xlink="http://www.w3.org/1999/xlink" version="1.1"><path d="M0 474L16 477.8C32 481.7 64 489.3 96 489.7C128 490 160 483 192 480.3C224 477.7 256 479.3 288 484.3C320 489.3 352 497.7 384 498C416 498.3 448 490.7 480 485.5C512 480.3 544 477.7 576 481.2C608 484.7 640 494.3 672 493.2C704 492 736 480 768 474.7C800 469.3 832 470.7 864 475.7C896 480.7 928 489.3 944 493.7L960 498L960 541L944 541C928 541 896 541 864 541C832 541 800 541 768 541C736 541 704 541 672 541C640 541 608 541 576 541C544 541 512 541 480 541C448 541 416 541 384 541C352 541 320 541 288 541C256 541 224 541 192 541C160 541 128 541 96 541C64 541 32 541 16 541L0 541Z" fill="#e6e6e6" stroke-linecap="round" stroke-linejoin="miter"></path></svg>