<svg id="visual" viewBox="0 0 900 100" width="900" height="100" xmlns="http://www.w3.org/2000/svg" xmlns:xlink="http://www.w3.org/1999/xlink" version="1.1"><rect x="0" y="0" width="900" height="100" fill="#f5c424"></rect><path d="M0 56L15 61.8C30 67.7 60 79.3 90 85.8C120 92.3 150 93.7 180 92.5C210 91.3 240 87.7 270 84.8C300 82 330 80 360 75.2C390 70.3 420 62.7 450 65.3C480 68 510 81 540 80.5C570 80 600 66 630 59.5C660 53 690 54 720 59.3C750 64.7 780 74.3 810 73.5C840 72.7 870 61.3 885 55.7L900 50L900 101L885 101C870 101 840 101 810 101C780 101 750 101 720 101C690 101 660 101 630 101C600 101 570 101 540 101C510 101 480 101 450 101C420 101 390 101 360 101C330 101 300 101 270 101C240 101 210 101 180 101C150 101 120 101 90 101C60 101 30 101 15 101L0 101Z" fill="#e6e6e6" stroke-linecap="round" stroke-linejoin="miter"></path></svg>