<svg id="visual" viewBox="0 0 900 100" width="900" height="100" xmlns="http://www.w3.org/2000/svg" xmlns:xlink="http://www.w3.org/1999/xlink" version="1.1"><rect x="0" y="0" width="900" height="100" fill="#e6e6e6"></rect><path d="M0 68L15 68.8C30 69.7 60 71.3 90 70.8C120 70.3 150 67.7 180 61.3C210 55 240 45 270 44.5C300 44 330 53 360 60.3C390 67.7 420 73.3 450 75.2C480 77 510 75 540 73.7C570 72.3 600 71.7 630 67.5C660 63.3 690 55.7 720 53.5C750 51.3 780 54.7 810 60C840 65.3 870 72.7 885 76.3L900 80L900 101L885 101C870 101 840 101 810 101C780 101 750 101 720 101C690 101 660 101 630 101C600 101 570 101 540 101C510 101 480 101 450 101C420 101 390 101 360 101C330 101 300 101 270 101C240 101 210 101 180 101C150 101 120 101 90 101C60 101 30 101 15 101L0 101Z" fill="#f5c424" stroke-linecap="round" stroke-linejoin="miter"></path></svg>