<svg id="visual" viewBox="0 0 900 600" width="900" height="600" xmlns="http://www.w3.org/2000/svg" xmlns:xlink="http://www.w3.org/1999/xlink" version="1.1"><path d="M0 467L25 461.7C50 456.3 100 445.7 150 444.8C200 444 250 453 300 463.8C350 474.7 400 487.3 450 482.3C500 477.3 550 454.7 600 443.7C650 432.7 700 433.3 750 437.5C800 441.7 850 449.3 875 453.2L900 457L900 601L875 601C850 601 800 601 750 601C700 601 650 601 600 601C550 601 500 601 450 601C400 601 350 601 300 601C250 601 200 601 150 601C100 601 50 601 25 601L0 601Z" fill="#898989" stroke-linecap="round" stroke-linejoin="miter"></path></svg>